<?xml version="1.0" encoding="UTF-8"?>
<svg width="64px" height="64px" viewBox="0 0 64 64" version="1.1" xmlns="http://www.w3.org/2000/svg" xmlns:xlink="http://www.w3.org/1999/xlink">
    <!-- Generator: Sketch 59.1 (86144) - https://sketch.com -->
    <title>3FBF3241-3BB8-4328-8A7C-358619AE00D7</title>
    <desc>Created with Sketch.</desc>
    <defs>
        <linearGradient x1="50%" y1="0%" x2="50%" y2="100%" id="linearGradient-1">
            <stop stop-color="#51A7FB" offset="0%"></stop>
            <stop stop-color="#0F72D2" offset="100%"></stop>
        </linearGradient>
        <path d="M21.2938599,0 L42.7061401,0 L38.6965809,7.94035776 L31.9985536,7.94035776 L25.3053477,7.94035776 L21.2938599,0 Z M40.8238266,10.736572 L39.9906714,8.73042384 L43.9799803,0.83460412 L51.3877324,13.7167478 L40.8238266,10.736572 Z M20.0200197,0.83460412 L24.0102929,8.73042384 L23.1896736,10.7065573 L12.629625,13.6857648 L20.0200197,0.83460412 Z M25.3439197,9.45755573 L31.9985536,9.45755573 L38.6560803,9.45755573 L40.1073517,12.9537918 L33.7767226,12.9537918 L34.3061233,17.5847796 L35.787288,21.5273643 L32.0853405,23.6177474 L28.3833931,21.5273643 L29.8182714,17.7687411 L30.3968514,12.9537918 L23.8926483,12.9537918 L25.3439197,9.45755573 Z M9,19.9995159 L11.5476804,15.5670128 L22.448127,12.4929199 L20.1694862,17.9788444 L12.4666583,26.0286108 L9,19.9995159 Z M43.8189422,17.9536708 L41.5653732,12.5229347 L52.4706413,15.5999322 L55,19.9995159 L51.9528122,25.2995425 L43.8189422,17.9536708 Z M26.1606817,30.0835088 L26.9784081,23.2372377 L21.7104375,18.2141215 L23.2629604,14.4709898 L23.3024967,14.4709898 L28.530931,15.935904 L28.3727858,17.3156149 L26.5059011,22.2060853 L31.3302937,24.9316196 L31.3302937,27.3928303 L27.7267048,29.4318979 L28.4672872,30.7544841 L32.0853405,28.7067025 L35.7033939,30.7544841 L36.4439763,29.4318979 L32.8413517,27.3928303 L32.8413517,24.9316196 L37.66478,22.2060853 L35.7978953,17.3156149 L35.6387858,15.9368722 L40.7515041,14.5058456 L42.2905268,18.2141215 L37.0225562,23.2372377 L37.8402826,30.0835088 L35.4372471,33.819863 L31.9985536,33.819863 L28.5637172,33.819863 L26.1606817,30.0835088 Z M38.915477,23.5247985 L43.2017902,19.4360129 L51.1794436,26.6424612 L47.9895394,32.1913199 L38.915477,23.5247985 Z M13.2525627,27.3967032 L20.8377461,19.4728052 L25.1346666,23.5722412 L16.6372555,33.2815337 L13.2525627,27.3967032 Z M39.3600193,30.0806042 L38.8180827,25.528042 L47.2123137,33.5429526 L46.0001887,35.6497955 L39.3600193,30.0806042 Z M17.4356959,34.6699586 L25.142381,25.8640137 L24.6573381,29.9266575 L18.4954615,36.5124779 L17.4356959,34.6699586 Z M25.26774,31.4922664 L27.2214117,34.529567 L22.8685617,40 L20.5002411,40 L19.2225437,37.7779391 L19.3093307,37.8592695 L25.26774,31.4922664 Z M36.806553,34.4889018 L38.7168312,31.5164718 L45.2335702,36.9840002 L43.4987946,40 L42.0022011,40 L36.806553,34.4889018 Z M28.5164665,35.337061 L31.9985536,35.337061 L35.5240341,35.337061 L39.9202776,40 L24.8029474,40 L28.5164665,35.337061 Z" id="path-2"></path>
        <filter x="-110.9%" y="-97.5%" width="321.7%" height="355.0%" filterUnits="objectBoundingBox" id="filter-3">
            <feOffset dx="0" dy="12" in="SourceAlpha" result="shadowOffsetOuter1"></feOffset>
            <feGaussianBlur stdDeviation="15" in="shadowOffsetOuter1" result="shadowBlurOuter1"></feGaussianBlur>
            <feColorMatrix values="0 0 0 0 0   0 0 0 0 0   0 0 0 0 0  0 0 0 0.08 0" type="matrix" in="shadowBlurOuter1"></feColorMatrix>
        </filter>
        <linearGradient x1="50%" y1="0%" x2="50%" y2="100%" id="linearGradient-4">
            <stop stop-color="#51A7FB" offset="0%"></stop>
            <stop stop-color="#0F72D2" offset="100%"></stop>
        </linearGradient>
        <path d="M9.554,52.864 L9.554,56.518 L18.518,56.518 L18.518,52.864 L9.554,52.864 Z M17.312,55.528 L10.76,55.528 L10.76,53.872 L17.312,53.872 L17.312,55.528 Z M20.228,57.742 L7.952,57.742 L7.952,62.818 L9.212,62.818 L9.212,62.08 L18.986,62.08 L18.986,62.818 L20.228,62.818 L20.228,57.742 Z M9.212,60.982 L9.212,58.822 L18.986,58.822 L18.986,60.982 L9.212,60.982 Z M6.26,47.536 L6.26,48.67 L10.31,48.67 L10.31,49.732 L11.606,49.732 L11.606,48.67 L16.394,48.67 L16.394,49.732 L17.69,49.732 L17.69,48.67 L21.74,48.67 L21.74,47.536 L17.69,47.536 L17.69,46.33 L16.394,46.33 L16.394,47.536 L11.606,47.536 L11.606,46.33 L10.31,46.33 L10.31,47.536 L6.26,47.536 Z M21.236,50.488 L6.764,50.488 L6.764,53.944 L8.006,53.944 L8.006,51.586 L19.994,51.586 L19.994,53.854 L21.236,53.854 L21.236,50.488 Z M25.286,46.438 L24.404,47.266 C25.7,48.346 26.708,49.372 27.446,50.308 L28.346,49.408 C27.518,48.418 26.51,47.428 25.286,46.438 Z M35.726,62.476 L39.92,62.476 L40.244,61.18 L39.8906667,61.2015309 C39.4442222,61.224 38.878,61.238 38.192,61.252 C37.292,61.27 36.41,61.288 35.546,61.288 L34.2153333,61.2826667 C33.378,61.276 32.642,61.264 32.018,61.252 C30.938,61.216 30.128,61.072 29.57,60.82 C29.066,60.586 28.598,60.208 28.166,59.686 C28.022,59.524 27.878,59.38 27.734,59.272 L27.734,52.54 L23.972,52.54 L23.972,53.728 L26.528,53.728 L26.528,59.2 C25.772,59.524 24.926,60.46 23.954,61.99 L24.926,62.872 L25.2061788,62.4120505 C26.0686939,61.0297959 26.6968571,60.352 27.104,60.352 C27.32,60.352 27.554,60.496 27.806,60.802 C28.364,61.45 28.994,61.9 29.696,62.116 C30.416,62.314 31.37,62.422 32.522,62.44 L34.7193333,62.4706667 C35.066,62.474 35.402,62.476 35.726,62.476 Z M31.37,49.678 L34.142,49.678 L34.142,52.018 L28.994,52.018 L28.994,53.206 L40.01,53.206 L40.01,52.018 L35.384,52.018 L35.384,49.678 L39.074,49.678 L39.074,48.472 L35.384,48.472 L35.384,46.312 L34.142,46.312 L34.142,48.472 L31.856,48.472 C32.036,47.986 32.198,47.482 32.342,46.942 L31.172,46.69 C30.776,48.202 30.128,49.588 29.264,50.83 L30.344,51.496 C30.722,50.938 31.064,50.326 31.37,49.678 Z M30.542,54.646 L30.542,59.704 L38.606,59.704 L38.606,54.646 L30.542,54.646 Z M37.346,58.498 L31.802,58.498 L31.802,55.852 L37.346,55.852 L37.346,58.498 Z M45.698,46.582 C45.284,47.446 44.834,48.202 44.348,48.886 C43.97,48.22 43.52,47.554 42.98,46.87 L41.99,47.518 C42.62,48.256 43.142,49.03 43.574,49.84 C42.98,50.506 42.332,51.064 41.63,51.514 L42.278,52.558 C42.962,52.018 43.556,51.496 44.078,50.974 C44.096,51.046 44.132,51.136 44.168,51.226 C44.348,51.838 44.51,52.54 44.618,53.35 C43.934,54.754 42.962,55.96 41.738,56.968 L42.422,57.994 C43.322,57.202 44.096,56.248 44.78,55.096 L44.820896,55.94272 C44.83904,56.37904 44.852,56.8348 44.852,57.31 L44.8475742,57.9422752 C44.8255917,59.4518131 44.7228235,60.4271765 44.564,60.856 C44.384,61.18 43.988,61.36 43.376,61.36 C43.016,61.36 42.62,61.324 42.206,61.288 L42.476,62.458 C42.818,62.494 43.196,62.512 43.592,62.512 C44.474,62.512 45.086,62.242 45.446,61.738 C45.806,61.198 45.986,59.758 45.986,57.436 C45.95,54.664 45.698,52.522 45.248,51.01 C45.14,50.686 45.032,50.362 44.906,50.038 C45.482,49.3 46.076,48.346 46.652,47.176 L45.698,46.582 Z M54.122,48.166 L54.122,50.146 L51.62,50.146 L51.62,60.622 L52.7,60.622 L52.7,51.262 L54.122,51.262 L54.122,62.656 L55.238,62.656 L55.238,60.37 L55.292,60.568 L56.516,60.568 C57.308,60.568 57.722,60.082 57.722,59.11 L57.722,50.146 L55.238,50.146 L55.238,48.166 L58.064,48.166 L58.064,46.996 L51.296,46.996 L51.296,48.166 L54.122,48.166 Z M55.238,59.416 L55.238,51.262 L56.624,51.262 L56.624,58.876 C56.624,59.254 56.444,59.452 56.12,59.452 L55.238,59.416 Z M47.03,48.706 L47.03,58.12 L48.128,58.12 L48.128,48.706 L47.03,48.706 Z M49.37,46.456 L50.522,46.456 L50.522,55.24 C50.486,58.696 49.604,61.216 47.894,62.836 L46.976,62.008 C48.542,60.604 49.334,58.336 49.37,55.24 L49.37,46.456 Z" id="path-5"></path>
        <filter x="-98.4%" y="-235.5%" width="296.9%" height="715.9%" filterUnits="objectBoundingBox" id="filter-6">
            <feOffset dx="0" dy="12" in="SourceAlpha" result="shadowOffsetOuter1"></feOffset>
            <feGaussianBlur stdDeviation="15" in="shadowOffsetOuter1" result="shadowBlurOuter1"></feGaussianBlur>
            <feColorMatrix values="0 0 0 0 0   0 0 0 0 0   0 0 0 0 0  0 0 0 0.08 0" type="matrix" in="shadowBlurOuter1"></feColorMatrix>
        </filter>
    </defs>
    <g id="组件" stroke="none" stroke-width="1" fill="none" fill-rule="evenodd">
        <g id="logo/default">
            <g id="Fill-1">
                <use fill="black" fill-opacity="1" filter="url(#filter-3)" xlink:href="#path-2"></use>
                <use fill="url(#linearGradient-1)" fill-rule="evenodd" xlink:href="#path-2"></use>
            </g>
            <g id="营造狮" fill-rule="nonzero">
                <use fill="black" fill-opacity="1" filter="url(#filter-6)" xlink:href="#path-5"></use>
                <use fill="#FFFFFF" xlink:href="#path-5"></use>
                <use fill="url(#linearGradient-4)" xlink:href="#path-5"></use>
            </g>
        </g>
    </g>
</svg>